<svg width="50" height="50" viewBox="0 0 50 50" fill="none" xmlns="http://www.w3.org/2000/svg">
<path d="M44.5176 7.64804C44.3001 9.59 43.3308 11.6332 43.1338 13.5691C42.9911 15.0074 43.2765 16.6539 43.1338 18.0921C42.9198 20.1585 41.9641 21.7823 41.75 23.8487C41.5564 25.7148 42.3947 27.4102 42.2113 29.2763C41.9871 31.5521 41.4309 34.5035 41.1965 36.761C41.0844 37.8716 41.2781 38.7743 41.1965 39.8849C41.1965 40.3309 39.2357 41.1555 38.7058 41.2829C34.4321 42.3328 29.8215 43.0688 25.5139 44.1612C24.7393 44.3524 22.5618 42.981 22.5618 42.5987L25.0628 28.3954C25.0628 28.268 25.0628 28.1496 25.0628 28.0313C25.8883 27.831 26.724 27.6672 27.5292 27.4214C28.1203 27.2393 28.3547 27.3668 28.5483 27.9039C29.6694 30.8623 30.8516 33.8026 31.993 36.761C32.1561 37.1889 32.309 37.3618 32.8899 37.198C34.1842 36.8156 35.5091 36.497 36.834 36.2148C37.4353 36.0874 37.4863 35.9053 37.2926 35.3956C36.09 32.4371 34.9486 29.4514 33.7664 26.4838C33.6033 26.0742 33.6135 25.8557 34.174 25.7556C34.9282 25.6099 35.6518 25.3823 36.406 25.2276C36.8442 25.1366 36.9767 24.9363 37.0175 24.5449C37.4353 20.2392 37.8532 15.9335 38.322 11.6278C38.3831 11.0452 38.1691 10.9269 37.5984 10.9633C37.0277 10.9997 36.2837 10.9633 35.6314 10.9633L25.0526 10.9997C25.0477 10.9726 25.0477 10.9449 25.0526 10.9178C25.0526 9.67065 25.0526 8.42355 25.0526 7.17645C25.0526 6.7213 25.4452 5.0987 25.9751 5.0987C31.3291 5.0987 36.8573 4.85199 42.2113 4.85199C42.782 4.85199 44.5685 7.2111 44.5176 7.64804Z" fill="#707070"/>
<path d="M45.5376 3.28949C38.7296 3.28949 31.9217 3.28949 25.1545 3.28949C18.3873 3.28949 11.4265 3.28949 4.56761 3.28949C3.89497 3.28949 3.62999 3.35321 3.70133 4.06324C4.27206 9.52501 4.72048 14.914 5.32178 20.3302C5.99442 27.5033 6.70783 34.6673 7.43143 41.8405C7.42191 42.0245 7.48985 42.205 7.62189 42.3465C7.75392 42.488 7.94048 42.5803 8.14484 42.6051C13.5803 43.9341 19.0362 45.2783 24.5124 46.6377C24.812 46.7151 25.1301 46.7151 25.4297 46.6377C30.9331 45.2723 36.4433 43.9129 41.9603 42.5596C42.4088 42.4504 42.6432 42.2956 42.6534 41.8587C42.6534 41.1942 42.7757 40.5387 42.847 39.8742C43.377 34.4853 43.9069 29.0903 44.4369 23.6892C45.1163 17.1533 45.7958 10.6174 46.4752 4.08145C46.516 3.38962 46.2612 3.28949 45.5376 3.28949ZM42.4801 7.23107C42.2627 9.17303 42.0555 11.112 41.8584 13.0478C41.7157 14.4861 41.5934 15.9244 41.4508 17.3626C41.2367 19.429 41.0125 21.4863 40.7985 23.5526C40.6049 25.4188 40.4418 27.2849 40.2584 29.151C40.0341 31.4267 39.8201 33.7024 39.5857 35.96C39.4736 37.0705 39.3309 38.172 39.2494 39.2825C39.2494 39.7286 39.0965 39.938 38.5666 40.0654C34.3133 41.1153 30.0328 42.1864 25.7252 43.2787C24.9507 43.4699 25.0628 43.0785 25.0628 42.6961V28.3954C25.0628 28.268 25.0628 28.1496 25.0628 28.0313C23.2079 27.5762 21.3734 27.212 19.5186 26.7387C18.9988 26.6021 18.7644 26.6385 18.8256 27.212C19.1517 30.0886 19.4065 32.9742 19.753 35.8416C19.9568 37.5439 20.018 37.5348 18.1835 37.0705C17.042 36.7792 15.8904 36.4879 14.7286 36.2331C14.6469 36.2284 14.567 36.2094 14.4935 36.1772C14.4201 36.1449 14.3545 36.1 14.3005 36.045C14.2465 35.99 14.2052 35.9261 14.179 35.8568C14.1528 35.7875 14.1421 35.7143 14.1476 35.6414C13.8079 32.073 13.4682 28.5077 13.1285 24.9454L12.1093 14.7865C12.0074 13.7488 11.9463 12.711 11.7832 11.6733C11.6915 11.0907 11.8647 10.9451 12.517 10.9451C16.3898 10.9451 20.2626 10.9451 24.1353 10.9451H24.7672H25.1545C25.1496 10.9179 25.1496 10.8903 25.1545 10.8631C25.1545 9.61604 25.1545 8.36893 25.1545 7.12183C25.1545 6.66668 25.3176 6.50283 25.8475 6.50283C31.2015 6.50283 36.5554 6.50283 41.9094 6.50283C42.3782 6.55745 42.5616 6.79412 42.5107 7.23107H42.4801Z" fill="#212121"/>
<path d="M18.795 27.2029C19.1211 30.0795 19.3759 32.9651 19.7224 35.8325C19.9262 37.5348 19.9874 37.5257 18.1529 37.0614C17.0114 36.7701 15.8598 36.4788 14.698 36.224C14.6163 36.2193 14.5364 36.2003 14.4629 36.1681C14.3895 36.1358 14.3239 36.0909 14.2699 36.0359C14.2159 35.9809 14.1746 35.917 14.1484 35.8477C14.1222 35.7784 14.1115 35.7052 14.117 35.6323C13.7773 32.0639 13.4376 28.4986 13.0979 24.9363L12.0787 14.7774C11.9768 13.7397 11.9157 12.7019 11.7526 11.6642C11.6609 11.0816 11.8341 10.936 12.4864 10.936C16.3592 10.936 20.232 10.936 24.1047 10.936H24.7366H25.1239C25.1239 12.5108 25.1239 14.0765 25.1239 15.6513V15.7423C25.1289 15.7725 25.1289 15.8032 25.1239 15.8334C25.1239 15.8334 20.711 15.8334 18.4994 15.8334C17.9694 15.8334 17.7248 15.9244 17.786 16.4615C17.9796 17.9179 18.1325 19.3835 18.2752 20.8491C18.266 20.9724 18.3092 21.0942 18.396 21.1904C18.4829 21.2865 18.6071 21.3499 18.744 21.368C20.8842 21.8686 23.0142 22.3966 25.1443 22.9154C25.1443 24.5631 25.1443 26.2198 25.1443 27.8675C25.1127 27.9006 25.0947 27.9423 25.0933 27.9858C23.2385 27.5306 21.404 27.1665 19.5491 26.6932C18.9376 26.593 18.7338 26.6295 18.795 27.2029Z" fill="#EBEBEB"/>
<path d="M25.0526 27.9039V28.0131C25.0407 27.9775 25.0407 27.9395 25.0526 27.9039Z" fill="#E9EAE9"/>
<path d="M25.0526 22.9518C22.9226 22.433 20.7925 21.905 18.6523 21.4043C18.5155 21.3863 18.3912 21.3229 18.3044 21.2268C18.2175 21.1306 18.1743 21.0088 18.1835 20.8855C18.0408 19.4199 17.888 17.9543 17.6943 16.4979C17.6332 15.9608 17.8778 15.8698 18.4077 15.8698C20.6193 15.8698 25.0322 15.8698 25.0322 15.8698L26.9899 16.5296C26.9899 18.8236 27.9327 21.5926 25.4216 22.7796L25.2371 22.8619L25.0526 22.9518Z" fill="#212121"/>
<path d="M33.7969 26.4656C34.9792 29.4331 36.1206 32.4189 37.3232 35.3774C37.5169 35.8871 37.4659 36.0692 36.8646 36.1966C35.5397 36.4788 34.2148 36.7974 32.9205 37.1797C32.3396 37.3436 32.1867 37.1797 32.0236 36.7428C30.8822 33.7843 29.6999 30.8441 28.5789 27.8856C28.375 27.3486 28.1406 27.2211 27.5597 27.4032C26.7546 27.649 25.9189 27.8128 25.0934 28.0131C25.098 27.9677 25.098 27.922 25.0934 27.8765C25.0934 26.2289 25.0934 24.5722 25.0934 22.9245V22.879L31.4631 21.3588C31.5882 21.3396 31.7017 21.2816 31.7837 21.195C31.8657 21.1084 31.911 20.9989 31.9115 20.8855C32.0542 19.3653 32.2173 17.8542 32.3905 16.334C32.3905 16.0336 32.3905 15.8515 31.9625 15.8515C29.6694 15.8971 27.3661 15.7878 25.073 15.9153C25.078 15.8851 25.078 15.8544 25.073 15.8242V15.7332C25.073 14.1584 25.0526 12.5123 25.0526 10.9375L35.6518 11.0179C36.3041 11.0179 36.9665 11.0179 37.6188 11.0179C38.271 11.0179 38.4035 11.0998 38.3424 11.6824C37.8736 15.9881 37.4557 20.2938 37.0378 24.5995C37.0378 24.9909 36.8646 25.1912 36.4264 25.2822C35.6722 25.4369 34.9486 25.6645 34.1944 25.8102C33.6441 25.8375 33.6339 26.0559 33.7969 26.4656Z" fill="#FEFEFE"/>
<path d="M25.1239 27.8766C25.1285 27.922 25.1285 27.9677 25.1239 28.0131V27.9039V27.8766Z" fill="#FCFDFC"/>
<path d="M32.3905 16.334C32.2173 17.8542 32.0542 19.3653 31.9115 20.8855C31.911 20.9989 31.8657 21.1085 31.7837 21.195C31.7017 21.2816 31.5882 21.3396 31.4631 21.3588L25.0526 22.9441C25.0526 20.6502 25.0526 18.4124 25.0526 16.1184V15.8717C27.3457 15.7443 29.7203 15.8971 32.0134 15.8333C32.3701 15.8971 32.4211 16.0336 32.3905 16.334Z" fill="#707070"/>
<path d="M25.0629 15.9245H25.0526V15.9153L25.0629 15.9245Z" fill="#35CB04"/>
</svg>
